<svg version="1.1" id="Layer_1" xmlns="http://www.w3.org/2000/svg" xmlns:xlink="http://www.w3.org/1999/xlink" x="0px" y="0px"
	 width="100%" viewBox="0 0 324 324" enable-background="new 0 0 324 324" xml:space="preserve">
<path fill="#1A2637" opacity="1.000000" stroke="none" 
	d="
M154.000000,325.000000 
	C102.666679,325.000000 51.833351,325.000000 1.000021,325.000000 
	C1.000014,217.000031 1.000014,109.000053 1.000007,1.000064 
	C108.999947,1.000043 216.999893,1.000043 324.999878,1.000021 
	C324.999939,108.999931 324.999939,216.999863 324.999969,324.999878 
	C268.166656,325.000000 211.333328,325.000000 154.000000,325.000000 
M134.228348,195.275650 
	C113.044479,172.735153 91.860619,150.194641 69.867096,126.792625 
	C69.867096,129.175232 69.860672,129.989441 69.868019,130.803528 
	C70.125221,159.286301 70.447495,187.768738 70.595161,216.252075 
	C70.630112,222.993774 68.700279,225.042587 62.241432,226.689148 
	C61.597118,226.853378 61.002411,227.212250 60.384678,227.480774 
	C60.446770,227.682983 60.508858,227.885208 60.570946,228.087418 
	C65.057487,228.087418 69.544037,228.087418 74.030579,228.087418 
	C78.466385,228.087418 82.902191,228.087418 87.337997,228.087418 
	C78.102295,224.724792 77.221436,223.542175 77.220879,213.711212 
	C77.219757,194.047440 77.211174,174.383652 77.226578,154.719894 
	C77.227768,153.195663 77.392761,151.671555 77.552673,148.928467 
	C103.578178,176.619675 128.688431,203.337051 153.798691,230.054443 
	C154.590729,224.879440 154.058228,220.583344 154.033829,216.284378 
	C153.902390,193.122574 153.946167,169.959793 153.818329,146.797958 
	C153.780075,139.867722 153.056274,132.774658 162.052429,130.136322 
	C154.265396,130.136322 146.478363,130.136322 138.691315,130.136322 
	C147.688644,132.339920 147.260956,139.152817 147.210571,146.073669 
	C147.069824,165.403122 147.167740,184.734283 147.157501,204.064774 
	C147.156860,205.294525 147.037125,206.524216 146.923019,208.705429 
	C142.393234,203.926331 138.545013,199.866318 134.228348,195.275650 
M237.884430,154.403732 
	C246.441986,146.103592 251.399643,133.735626 264.646637,130.242584 
	C256.766388,130.242584 248.886108,130.242584 240.299515,130.242584 
	C245.243118,133.325027 244.275879,136.336807 241.578323,139.676743 
	C231.861877,151.707016 222.242874,163.815933 212.557556,175.871445 
	C211.037415,177.763626 209.743668,179.259949 211.919281,181.830368 
	C222.554214,194.395233 232.857849,207.241913 243.565186,219.743515 
	C249.755188,226.970779 262.118286,230.134354 268.920044,227.536209 
	C265.318176,225.348190 260.283508,223.622253 257.173370,220.165009 
	C245.055450,206.694687 233.617676,192.614822 221.750305,178.914673 
	C219.533447,176.355438 220.049179,174.843109 222.037903,172.637726 
	C227.271576,166.833908 232.294632,160.840149 237.884430,154.403732 
M194.145844,134.698380 
	C194.950333,138.027939 196.420288,141.351242 196.451675,144.688065 
	C196.659790,166.815414 196.474045,188.946182 196.605560,211.074707 
	C196.652115,218.906418 195.935364,225.928558 186.291809,227.790253 
	C195.995804,227.790253 205.699814,227.790253 216.298157,227.790253 
	C205.888855,223.764526 205.745865,223.551392 205.745850,213.043091 
	C205.745819,190.913788 205.813019,168.784149 205.706421,146.655350 
	C205.672913,139.702194 204.898270,132.609985 214.052689,130.185272 
	C205.139587,130.185272 196.226501,130.185272 186.921097,130.185272 
	C189.490601,131.672836 191.581924,132.883575 194.145844,134.698380 
M176.871933,106.377792 
	C177.192383,103.537163 177.512848,100.696533 177.924164,97.050491 
	C174.712952,98.475433 172.525238,99.446205 170.149246,100.500526 
	C168.531052,97.529457 167.070786,94.848373 165.140442,91.304192 
	C163.250351,94.877121 161.821274,97.578606 160.279114,100.493820 
	C157.766937,99.451157 155.462830,98.494858 152.137436,97.114677 
	C152.956482,102.170647 153.439499,106.085930 154.324066,109.908287 
	C154.526642,110.783669 156.094620,111.917854 157.064163,111.947327 
	C163.183563,112.133331 169.311417,112.041626 175.421799,112.041626 
	C175.931549,110.068489 176.301666,108.635880 176.871933,106.377792 
M88.499954,107.228813 
	C105.106392,107.228813 121.712837,107.228813 138.319275,107.228813 
	C138.312592,106.873192 138.305923,106.517578 138.299240,106.161957 
	C112.263512,106.161957 86.227783,106.161957 60.192055,106.161957 
	C60.189472,106.517647 60.186890,106.873337 60.184307,107.229027 
	C69.289520,107.229027 78.394730,107.229027 88.499954,107.228813 
M267.761658,105.690285 
	C242.375351,105.690285 216.989044,105.690285 191.602753,105.690285 
	C192.848068,106.965126 194.121719,107.206253 195.395599,107.207481 
	C219.035965,107.230202 242.676361,107.230980 266.316711,107.203804 
	C267.432434,107.202522 268.547791,106.899475 269.663330,106.736969 
	C269.302856,106.399300 268.942413,106.061638 267.761658,105.690285 
z"/>
<path fill="#E2E2E3" opacity="1.000000" stroke="none" 
	d="
M134.462555,195.540985 
	C138.545013,199.866318 142.393234,203.926331 146.923019,208.705429 
	C147.037125,206.524216 147.156860,205.294525 147.157501,204.064774 
	C147.167740,184.734283 147.069824,165.403122 147.210571,146.073669 
	C147.260956,139.152817 147.688644,132.339920 138.691315,130.136322 
	C146.478363,130.136322 154.265396,130.136322 162.052429,130.136322 
	C153.056274,132.774658 153.780075,139.867722 153.818329,146.797958 
	C153.946167,169.959793 153.902390,193.122574 154.033829,216.284378 
	C154.058228,220.583344 154.590729,224.879440 153.798691,230.054443 
	C128.688431,203.337051 103.578178,176.619675 77.552673,148.928467 
	C77.392761,151.671555 77.227768,153.195663 77.226578,154.719894 
	C77.211174,174.383652 77.219757,194.047440 77.220879,213.711212 
	C77.221436,223.542175 78.102295,224.724792 87.337997,228.087418 
	C82.902191,228.087418 78.466385,228.087418 74.030579,228.087418 
	C69.544037,228.087418 65.057487,228.087418 60.570946,228.087418 
	C60.508858,227.885208 60.446770,227.682983 60.384678,227.480774 
	C61.002411,227.212250 61.597118,226.853378 62.241432,226.689148 
	C68.700279,225.042587 70.630112,222.993774 70.595161,216.252075 
	C70.447495,187.768738 70.125221,159.286301 69.868019,130.803528 
	C69.860672,129.989441 69.867096,129.175232 69.867096,126.792625 
	C91.860619,150.194641 113.044479,172.735153 134.462555,195.540985 
z"/>
<path fill="#E2E2E3" opacity="1.000000" stroke="none" 
	d="
M237.643005,154.662888 
	C232.294632,160.840149 227.271576,166.833908 222.037903,172.637726 
	C220.049179,174.843109 219.533447,176.355438 221.750305,178.914673 
	C233.617676,192.614822 245.055450,206.694687 257.173370,220.165009 
	C260.283508,223.622253 265.318176,225.348190 268.920044,227.536209 
	C262.118286,230.134354 249.755188,226.970779 243.565186,219.743515 
	C232.857849,207.241913 222.554214,194.395233 211.919281,181.830368 
	C209.743668,179.259949 211.037415,177.763626 212.557556,175.871445 
	C222.242874,163.815933 231.861877,151.707016 241.578323,139.676743 
	C244.275879,136.336807 245.243118,133.325027 240.299515,130.242584 
	C248.886108,130.242584 256.766388,130.242584 264.646637,130.242584 
	C251.399643,133.735626 246.441986,146.103592 237.643005,154.662888 
z"/>
<path fill="#E1E1E2" opacity="1.000000" stroke="none" 
	d="
M193.909546,134.396332 
	C191.581924,132.883575 189.490601,131.672836 186.921097,130.185272 
	C196.226501,130.185272 205.139587,130.185272 214.052689,130.185272 
	C204.898270,132.609985 205.672913,139.702194 205.706421,146.655350 
	C205.813019,168.784149 205.745819,190.913788 205.745850,213.043091 
	C205.745865,223.551392 205.888855,223.764526 216.298157,227.790253 
	C205.699814,227.790253 195.995804,227.790253 186.291809,227.790253 
	C195.935364,225.928558 196.652115,218.906418 196.605560,211.074707 
	C196.474045,188.946182 196.659790,166.815414 196.451675,144.688065 
	C196.420288,141.351242 194.950333,138.027939 193.909546,134.396332 
z"/>
<path fill="#9E9077" opacity="1.000000" stroke="none" 
	d="
M176.771851,106.790535 
	C176.301666,108.635880 175.931549,110.068489 175.421799,112.041626 
	C169.311417,112.041626 163.183563,112.133331 157.064163,111.947327 
	C156.094620,111.917854 154.526642,110.783669 154.324066,109.908287 
	C153.439499,106.085930 152.956482,102.170647 152.137436,97.114677 
	C155.462830,98.494858 157.766937,99.451157 160.279114,100.493820 
	C161.821274,97.578606 163.250351,94.877121 165.140442,91.304192 
	C167.070786,94.848373 168.531052,97.529457 170.149246,100.500526 
	C172.525238,99.446205 174.712952,98.475433 177.924164,97.050491 
	C177.512848,100.696533 177.192383,103.537163 176.771851,106.790535 
M155.992874,101.321892 
	C155.804047,101.703438 155.615219,102.084984 155.465820,103.299538 
	C155.862854,105.384483 156.259888,107.469421 156.669769,109.621841 
	C162.517548,109.621841 168.076004,109.621841 173.828888,109.621841 
	C174.282959,106.765320 174.687500,104.220413 175.157776,101.261925 
	C172.712372,102.165131 170.911636,102.830223 168.994675,103.538254 
	C167.665527,101.208435 166.506866,99.177467 165.098480,96.708763 
	C163.604736,99.493210 162.467896,101.612350 161.269821,103.845642 
	C159.333862,102.986366 157.833603,102.320480 155.992874,101.321892 
z"/>
<path fill="#AB9B7D" opacity="1.000000" stroke="none" 
	d="
M87.999954,107.228920 
	C78.394730,107.229027 69.289520,107.229027 60.184307,107.229027 
	C60.186890,106.873337 60.189472,106.517647 60.192055,106.161957 
	C86.227783,106.161957 112.263512,106.161957 138.299240,106.161957 
	C138.305923,106.517578 138.312592,106.873192 138.319275,107.228813 
	C121.712837,107.228813 105.106392,107.228813 87.999954,107.228920 
z"/>
<path fill="#AC9B7E" opacity="1.000000" stroke="none" 
	d="
M268.171814,105.707130 
	C268.942413,106.061638 269.302856,106.399300 269.663330,106.736961 
	C268.547791,106.899475 267.432434,107.202522 266.316711,107.203804 
	C242.676361,107.230980 219.035965,107.230202 195.395599,107.207481 
	C194.121719,107.206253 192.848068,106.965126 191.602753,105.690285 
	C216.989044,105.690285 242.375351,105.690285 268.171814,105.707130 
z"/>
<path fill="#1E2939" opacity="1.000000" stroke="none" 
	d="
M156.333359,101.654594 
	C157.833603,102.320480 159.333862,102.986366 161.269821,103.845642 
	C162.467896,101.612350 163.604736,99.493210 165.098480,96.708763 
	C166.506866,99.177467 167.665527,101.208435 168.994675,103.538254 
	C170.911636,102.830223 172.712372,102.165131 175.157776,101.261925 
	C174.687500,104.220413 174.282959,106.765320 173.828888,109.621841 
	C168.076004,109.621841 162.517548,109.621841 156.669769,109.621841 
	C156.259888,107.469421 155.862854,105.384483 155.678009,102.685806 
	C156.037903,101.932922 156.185623,101.793762 156.333359,101.654594 
z"/>
<path fill="#1E2939" opacity="1.000000" stroke="none" 
	d="
M155.658295,102.269302 
	C155.615219,102.084984 155.804047,101.703438 156.163116,101.488243 
	C156.185623,101.793762 156.037903,101.932922 155.658295,102.269302 
z"/>
</svg>