<svg id="svg" version="1.1" viewBox="0 0 300 300" width="300" height="300" xmlns="http://www.w3.org/2000/svg"><svg xmlns="http://www.w3.org/2000/svg"><defs><clipPath id="clip-1"><rect x="0" y="0" transform="scale(0.20833,0.20833)" width="1440" height="1440" fill="none"/></clipPath><linearGradient x1="14.08317" y1="49.21583" x2="109.30333" y2="74.80625" gradientUnits="userSpaceOnUse" id="color-1"><stop offset="0" stop-color="#2076c1"/><stop offset="1" stop-color="#298dd5"/></linearGradient></defs><g clip-path="url(#clip-1)" fill="none" fill-rule="nonzero" stroke="none" stroke-width="1" stroke-linecap="butt" stroke-linejoin="miter" stroke-miterlimit="10" stroke-dasharray="" stroke-dashoffset="0" font-family="none" font-weight="none" font-size="none" text-anchor="none" style="mix-blend-mode: normal"><path d="M133.46708,51.72104c0.55958,-0.08792 0.85521,-0.20458 1.34729,0.05792l0.07458,0.36208c-1.90521,3.46021 -3.20333,5.34458 -3.35104,9.59333c-0.14979,4.30646 -0.08479,8.60292 -0.08562,12.91125l0.00771,40.72438l0.00292,12.63896c-0.00021,3.38813 0.51333,8.89042 -1.43563,11.67792c-1.285,1.85229 -3.27146,3.09896 -5.49854,3.45083c-2.19417,0.36875 -5.0325,-0.29042 -6.73146,-1.68167c-3.34958,-2.9925 -2.53625,-7.75583 -2.69604,-11.70187c-0.22917,-5.65208 0.41625,-11.91104 -0.12854,-17.48125c-4.42125,0.72542 -18.14604,-0.35354 -22.72208,0.255c-1.14021,0.15146 0.48417,23.79875 -1.37958,26.58917c-1.52271,2.27937 -2.29917,2.82833 -4.975,3.93396c-5.87146,0.83458 -10.26937,-2.05542 -10.26125,-8.24417c0.00479,-3.63583 0.03375,-7.31021 0.0275,-10.94604l-0.12729,-20.69604c-0.01062,-7.7025 0.01979,-15.41062 0.10583,-23.10771c0.09833,-8.79438 15.02417,-8.89208 15.84979,-0.80979c0.58688,5.74625 0.30438,12.17437 0.31333,18.00563c1.01625,-0.11604 2.23917,-0.18333 3.26708,-0.16042c6.72729,0.14979 13.47667,-0.08437 20.19833,-0.01917c-0.3875,-4.47104 -0.08167,-10.70979 -0.14333,-15.40958c0.19375,-4.81292 -0.40396,-9.95208 0.2475,-14.70625c1.3025,-9.50396 9.86417,-13.76021 18.09354,-15.23646z" fill="#2683cc"/><path d="M32.02604,73.84271c6.62271,-0.10083 14.66375,-0.45833 21.01042,1.29583c15.61208,4.31458 19.45521,25.34187 10.43396,37.21625c-2.02375,2.66354 -4.59375,3.88833 -7.4725,5.40396c1.42479,2.91417 3.655,6.42958 5.34563,9.27208c3.15542,5.20854 6.18062,10.495 9.07271,15.85417c-4.78854,-0.28625 -14.66417,0.82208 -18.64458,-1.24083c-3.26646,-1.69313 -7.38354,-9.57854 -9.37125,-12.93125c-2.00313,-3.37854 -4.82438,-7.56 -6.58354,-11.07333c-0.38833,-0.76813 -0.68146,-1.58062 -0.87292,-2.41979c-1.33125,-5.68396 1.04042,-9.13542 6.60813,-10.39687c3.14917,-0.15604 5.47604,-0.085 7.7025,-2.76771c1.25063,-1.48542 1.85104,-3.41167 1.66583,-5.34479c-0.18604,-2.10604 -1.21667,-4.04729 -2.85729,-5.38104c-3.36021,-2.72729 -10.41833,-2.05375 -14.5525,-1.91125c-3.93354,0.13542 -6.63104,2.89417 -6.80063,6.82229c-0.1525,3.52875 -0.08167,6.98771 -0.07833,10.49875l0.01958,20.19458c0.01146,2.66479 0.25542,6.86021 -0.23771,9.42396c-1.90792,9.91812 -16.71835,8.74958 -16.81337,-1.72438c-0.05638,-6.21438 0.00979,-12.54771 0.00088,-18.7775l-0.0246,-13.46521c-0.01021,-7.89083 -0.2386,-14.98708 5.45069,-21.47312c4.73335,-5.39625 10.11454,-6.65292 16.99892,-7.07479z" fill="#014280"/><path d="M145.9175,151.15396c1.23104,0.95854 2.70854,3.54479 3.64625,4.86833c1.83187,2.58604 8.85521,12.59146 10.99854,14.1025l0.08771,0.44333c-0.22292,7.94167 0.26708,16.28958 -0.23854,24.15604c-0.8325,12.95542 -5.82396,25.6675 -15.38,34.66333c-9.16146,8.62292 -20.04917,15.42917 -30.65708,22.14792c-4.86167,3.07917 -13.50708,8.90208 -18.68812,10.96042c-3.89729,1.56667 -8.07937,2.30208 -12.2775,2.15625c-8.4325,-0.27292 -14.50354,-3.56875 -21.36583,-8.15625c-1.23646,-0.82708 -4.18187,-2.60833 -5.21708,-3.45208c1.48958,-0.75208 6.63021,0.34583 8.98042,0.40625c6.93667,0.175 17.77792,-2.84583 23.20063,-7.05417c2.24479,-0.81458 6.67146,-3.80208 8.81042,-5.175c4.9975,-3.225 9.9775,-6.47917 14.93979,-9.75833c8.62437,-5.66667 19.49146,-13.38333 25.21542,-22.10208c1.95479,-2.97625 4.31833,-10.02021 4.6975,-13.56c0.22354,-2.08771 0.12458,-7.03375 0.12896,-9.41708l-0.0425,-19.76292c-0.00417,-5.98313 -0.21125,-10.07896 3.16104,-15.46646z" fill="#014280"/><path d="M172.29438,48.22417c4.265,0.36688 9.53792,-0.02042 14.15354,0.06333c8.88146,0.16146 10.55021,11.02042 3.73292,15.18708c-1.63958,1.00208 -5.84979,0.86271 -7.96292,0.86583c-4.10521,-0.00021 -8.21042,-0.02125 -12.31563,-0.06312c-10.01542,-0.07833 -13.21146,-0.29958 -12.59896,11.1325c0.05083,0.95042 -0.02417,2.36688 -0.06479,3.35875c0.12896,-0.00458 0.25792,-0.00771 0.38688,-0.00896c6.43417,-0.07958 12.92625,0.06083 19.37417,-0.00417c6.37,-0.06438 7.41583,3.03771 7.3625,8.82167c0.11604,3.3125 -1.60438,6.06375 -5.25229,6.04417c-6.95729,-0.03729 -14.99979,0.52896 -21.8875,-0.03896c0.35083,5.95021 0.09125,14.73583 0.08083,20.89688c0.05563,7.89729 0.43771,14.66979 -4.84271,21.38208c-4.19042,5.32667 -9.52938,7.19917 -15.93729,7.98979c5.97812,-7.30792 4.50208,-18.24042 4.51354,-27.28333l0.01417,-37.76396c-0.00396,-8.31792 -1.43917,-17.0825 4.53146,-23.76354c7.57583,-8.47667 16.72333,-6.31063 26.71208,-6.81604z" fill="#2683cc"/><path d="M11.11421,154.54542c3.49135,-1.39521 8.98629,-1.51792 12.62808,-4.47458c0.79146,-0.6425 2.18437,-1.76271 3.18792,-1.62458c0.27854,1.38813 -0.05146,8.21187 -0.05333,10.03437l-0.01937,22.19146c-0.00792,4.94042 -0.21646,10.28687 0.29729,15.17104c2.17437,20.45271 22.12563,30.72979 37.46563,40.86729c7.55646,4.99375 14.87604,10.66458 24.38646,9.68542c-5.42271,4.20833 -16.26396,7.22917 -23.20062,7.05417c-2.35021,-0.06042 -7.49083,-1.15833 -8.98042,-0.40625c-1.99271,-1.05833 -3.81292,-2.67292 -5.75854,-3.77708c-19.84229,-11.25833 -38.91946,-27.18542 -41.33765,-51.41875c-0.27802,-2.78625 -0.18194,-5.68979 -0.182,-8.52042l0.00331,-13.71229l-0.04044,-11.32104c-0.01108,-3.41292 -0.63004,-7.01583 1.60369,-9.74875z" fill="#2683cc"/><path d="M227.27708,240.03125c7.08542,-4.50625 13.80833,-9.54167 21.075,-14.6c3.82083,-2.66042 14.57083,-9.57292 17.48125,-13.80833c0.3875,-0.56458 0.28125,-6.61021 0.27083,-7.91417l-0.04375,-13.97583c0.00417,-1.94667 -0.25,-8.875 0.8625,-10.12c3.85,-4.31354 9.67083,-7.30271 14.21667,-10.90771c0.73542,-0.58292 3.08542,-2.01833 3.8875,-1.78646c0.65417,0.18979 1.21042,0.83521 1.69792,1.32646c0.43542,2.96646 0.32292,7.03562 0.32292,10.12104l-0.0125,14.35958l-0.025,14.31813c-0.01667,9.70813 0.84792,15.96021 -7.83333,22.21854c-9.91667,7.15 -19.90625,14.23333 -30.09167,21.00625c-6.22083,4.20833 -12.23333,8.78958 -18.66667,12.70625c-1.58333,0.96458 -2.075,1.26667 -3.93125,1.14792l0.40833,-0.16458c0.475,-0.85625 0.02708,-20.65208 0.38125,-23.92708z" fill="#014280"/><path d="M247.09583,137.70313c0.26458,4.79542 0.1625,10.01646 0.16458,14.85375l0.00833,22.96125l0.01667,13.95125c0.00625,4.72875 0.62292,12.00417 -2.96458,15.55187c-4.03542,3.99333 -9.45208,7.11417 -14.02917,10.47875c-6.33958,4.71875 -12.58333,8.91667 -19.07292,13.30208c-0.95833,-0.37292 -3.70042,-2.41458 -4.72625,-3.08542c-3.85667,-2.52292 -7.79708,-5.00833 -11.4925,-7.7625c-0.74042,-0.55208 -0.96333,-0.99375 -1.92417,-1.25c1.19979,-2.41875 18.83458,-13.48188 22.40125,-16.71375c2.37083,-2.15021 9.03125,-5.17687 10.775,-8.16187c1.34792,-2.30479 0.33333,-8.64875 0.63958,-11.44542c0.04792,-2.32271 0.23333,-9.05896 -0.3375,-11.0725c0.00625,-0.05729 0.00417,-0.11604 0.01875,-0.17187c0.22292,-0.91979 4.22917,-5.29292 5.05208,-6.48958c2.33958,-3.40687 13.60417,-23.62167 14.79375,-24.40458c0.24375,-0.15958 0.45625,-0.35313 0.67708,-0.54146z" fill="#014280"/><path d="M28.74792,48.4225c3.15188,-0.24021 7.7575,-0.12562 11.055,-0.12625c7.18792,-0.01708 14.37604,0.02146 21.56333,0.11521l56.93833,0.04292c-2.76854,2.32354 -7.2275,5.30937 -10.30708,7.46688c-4.21188,2.95062 -9.16333,7.06021 -13.88146,8.98146c-1.68375,0.68563 -5.02062,0.52208 -6.87646,0.50375l-38.83229,0.00896l-11.90438,-0.03521c-14.35708,-0.05 -18.07533,1.34417 -27.10244,12.40167c0.82083,-8.14125 -1.62848,-15.70271 4.69575,-22.69167c4.60246,-5.08604 7.90877,-6.25729 14.65169,-6.66771z" fill="url(#color-1)"/><path d="M50.65771,192.81104c7.52875,0.31167 16.16667,0.02125 23.76708,-0.02021l27.62208,0.10938l11.80187,-0.01646c3.92729,-0.00687 8.23854,-0.53271 11.59625,1.66417c5.78875,3.78729 4.77583,12.4375 -1.10437,15.54792c-1.67792,0.8875 -2.50583,1.03958 -4.40271,1.35208c-4.65187,0.18125 -10.09208,0.0375 -14.82625,0.04167l-29.28375,-0.02292l-16.49125,0.01667c-4.97813,0.01042 -12.45021,0.79375 -16.28521,-2.625c-3.36479,-3.00083 -4.12125,-9.57896 -0.95562,-12.95896c2.39729,-2.55958 5.29021,-2.97271 8.56188,-3.08833z" fill="#b4d0e6"/><path d="M262.9375,52.71125c3.42917,0.54188 6.3125,-0.31938 9.49792,2.69271c2.95,2.79042 2.43333,8.10146 2.4625,12.02625c0.08542,5.24583 0.27083,12.39354 0.06875,17.5625c-2.00833,-0.01667 -4.01667,-0.02187 -6.02292,-0.01542c0.06667,-3.81021 0.13125,-7.85937 0.08125,-11.66583c-6.675,-0.31521 -14.49167,-0.14167 -21.24583,-0.14208c-12.25,-0.07 -24.5,-0.01896 -36.74792,0.15271l0.05625,15.16833c-0.00417,2.52854 -0.15833,6.15146 0.02083,8.57542c-2.33333,-0.23604 -3.57417,-0.16271 -5.90813,0.1125c0.31896,-1.96104 0.19167,-5.34812 0.18521,-7.46333l-0.04687,-14.96354c-0.00542,-1.49063 -0.14229,-5.80688 -0.02167,-7.10813c0.13458,-4.14854 -0.73167,-9.21417 2.49792,-12.34875c2.71437,-2.63437 6.15396,-2.39896 9.60604,-2.37708c-0.1875,2.67125 -0.21458,4.43958 0.11458,7.07375c1.46042,1.97312 3.16875,3.47542 5.78542,3.43437c1.36458,-0.01771 2.66458,-0.59021 3.59792,-1.58562c2.37708,-2.49875 1.71667,-5.64312 1.65833,-8.93917c6.9875,0.29917 15.9,0.06229 23.00208,-0.01396c0.09792,2.82833 -0.53958,6.43646 1.48333,8.63458c2.22292,2.41792 6.325,2.49354 8.61042,0.13688c2.025,-2.08625 1.36875,-6.19875 1.26458,-8.94708z" fill="#2683cc"/><path d="M274.89792,67.43021c0.08542,5.24583 0.27083,12.39354 0.06875,17.5625c-2.00833,-0.01667 -4.01667,-0.02187 -6.02292,-0.01542c0.06667,-3.81021 0.13125,-7.85937 0.08125,-11.66583c-6.675,-0.31521 -14.49167,-0.14167 -21.24583,-0.14208c-12.25,-0.07 -24.5,-0.01896 -36.74792,0.15271l0.05625,15.16833c-0.00417,2.52854 -0.15833,6.15146 0.02083,8.57542c-2.33333,-0.23604 -3.57417,-0.16271 -5.90813,0.1125c0.31896,-1.96104 0.19167,-5.34812 0.18521,-7.46333l-0.04687,-14.96354c-0.00542,-1.49063 -0.14229,-5.80688 -0.02167,-7.10813c1.90604,-0.21583 5.45812,-0.14937 7.47896,-0.17042c4.80208,-0.07271 9.60417,-0.08396 14.40833,-0.03375c10.09792,0.05917 20.19792,0.04896 30.29583,-0.03063c5.55417,0.0025 11.90208,0.27813 17.39792,0.02167z" fill="#014280"/><path d="M192.97604,168.42458c4.07667,-3.2825 8.72938,-6.18854 12.96042,-9.26146l15.41146,-11.26458c3.35,-2.49563 6.73125,-4.94667 10.14375,-7.3525c3.20208,-2.29937 7.47292,-5.74437 11.12708,-6.93437c2.69167,0.69104 3.56458,1.49104 4.47708,4.09146c-0.22083,0.18833 -0.43333,0.38188 -0.67708,0.54146c-1.18958,0.78292 -12.45417,20.99771 -14.79375,24.40458c-0.82292,1.19667 -4.82917,5.56979 -5.05208,6.48958c-0.01458,0.05583 -0.0125,0.11458 -0.01875,0.17188c-4.49375,4.19146 -10.5125,7.76208 -15.38333,11.55417c-5.0125,3.90271 -10.05479,7.80729 -15.26125,11.44688c-1.03062,0.72042 -2.20875,1.60521 -3.47125,1.2625c1.13063,-4.43333 -0.75854,-22.34937 0.53771,-25.14958z" fill="#0b59a5"/><path d="M145.9175,151.15396c2.81521,-5.01792 9.38792,-7.38708 14.90312,-6.47313c3.75271,1.49292 13.94563,9.95708 17.57938,12.72583c3.60271,2.74521 11.53188,8.08604 14.57604,11.01792c-1.29625,2.80021 0.59292,20.71625 -0.53771,25.14958c-3.41812,-1.685 -10.54042,-7.37583 -13.95146,-9.88125c-5.92104,-4.34875 -11.89542,-8.79896 -17.83687,-13.12479l-0.08771,-0.44333c-2.14333,-1.51104 -9.16667,-11.51646 -10.99854,-14.1025c-0.93771,-1.32354 -2.41521,-3.90979 -3.64625,-4.86833z" fill="#2683cc"/><path d="M145.9175,151.15396c2.81521,-5.01792 9.38792,-7.38708 14.90312,-6.47313c-0.24479,1.57708 -0.18313,4.29229 -0.18479,5.97833l0.03646,12.475c0.00521,1.74312 0.085,5.41542 -0.11,6.99063c-2.14333,-1.51104 -9.16667,-11.51646 -10.99854,-14.1025c-0.93771,-1.32354 -2.41521,-3.90979 -3.64625,-4.86833z" fill="#0b59a5"/><path d="M260.91875,89.65583c4.48125,-0.315 10.10625,0.01146 14.16667,-0.12667c12.10417,-0.78208 12.39375,4.98271 11.82292,15.06c-0.4,7.05271 2.5625,16.86396 -6.86458,18.44688c-5.53542,0.56312 -12.88125,0.00229 -18.5375,-0.00208c-4.25,-0.00333 -7.025,-3.75292 -7.04167,-7.89c-0.025,-6.28812 -0.24375,-13.10229 0.19583,-19.41625c0.22917,-3.55417 2.97708,-5.45458 6.25833,-6.07188zM267.65208,108.54188c-1.27708,-1.22875 -2.85625,-3.02771 -4.28125,-4.00729c-1.33958,-0.92 -3.06042,1.19208 -2.76458,2.51313c0.12708,0.97688 1.85833,2.48063 2.48958,3.10229c1.9375,2.11271 2.44792,2.68792 4.91458,4.20167c1.85417,-1.17917 13.09167,-12.7575 14.09792,-14.49104c-0.54167,-1.02688 -1.275,-2.77813 -2.64792,-2.83146c-3.58958,2.75292 -8.08125,8.90042 -11.80833,11.51271z" fill="#2683cc"/><path d="M193.07583,216.70417c0.96083,0.25625 1.18375,0.69792 1.92417,1.25c3.69542,2.75417 7.63583,5.23958 11.4925,7.7625c1.02583,0.67083 3.76792,2.7125 4.72625,3.08542c4.63958,3.44375 9.69583,6.41875 14.29375,9.95208c0.48542,0.37292 1.2625,1.00417 1.76458,1.27708c-0.35417,3.275 0.09375,23.07083 -0.38125,23.92708l-0.40833,0.16458c-4.64583,-1.43125 -16.53333,-11.21458 -21.53625,-14.04792c-2.37333,-1.71667 -10.76375,-6.29375 -11.72208,-8.69583c-1.62458,-4.07083 -1.43188,-20.94375 -0.15333,-24.675z" fill="#2683cc"/><path d="M72.74813,175.72333c0.52146,-0.05062 1.04438,-0.08562 1.56792,-0.10479c3.57646,-0.15646 7.51354,-0.04063 11.12917,-0.03292l19.8575,0.01104l11.80771,-0.02917c2.01271,-0.00458 4.00417,-0.02896 6.01708,0.05458c2.66375,0.11042 3.51042,0.60021 5.44146,2.36479l0.70896,2.66583l-0.31771,0.8525c-0.66271,1.76646 -1.43146,2.68125 -3.15542,3.46333c-1.90771,0.40708 -6.33229,0.28854 -8.48958,0.28917l-14.72375,-0.03313c-8.84187,-0.04021 -17.6875,0.06875 -26.52604,-0.02396c-2.60833,-0.02729 -5.59229,-0.26687 -6.43354,-3.21667c-0.79729,-2.795 0.11979,-5.40896 3.11625,-6.26063z" fill="#b4d0e6"/><path d="M285.45625,128.9625c0.62292,0.14437 0.67917,0.13083 1.11875,0.56083c0.70833,2.09729 0.54375,20.97479 -0.07083,23.47229c-0.15625,0.63625 -0.37083,1.41333 -0.77917,1.93646c-1.83125,2.33646 -14.84375,11.01375 -18.10208,13.00875l-0.63542,-0.0025c-0.20208,-0.15667 -0.35,-0.29 -0.45625,-0.52896c-0.47292,-1.06771 -0.41042,-19.36083 -0.26458,-21.5375c0.06667,-1.00396 0.22708,-2.20083 0.65,-3.12083c0.52083,-1.12875 1.61042,-2.13563 2.53542,-2.93292c2.33333,-2.00812 13.57292,-10.0275 16.00417,-10.85563z" fill="#2683cc"/><path d="M86.35896,158.81021c12.25083,-0.52979 25.38542,0.35625 37.72646,0.05687c5.52104,-0.13396 7.94188,8.27229 0.22458,9.21062c-1.43083,0.02833 -2.91354,0.01854 -4.34875,-0.00021c-11.20875,-0.14479 -22.45,0.20729 -33.65,-0.12542c-1.05604,-0.03125 -2.02396,-0.32375 -3.00771,-0.68292c-3.39729,-3.78187 -1.77542,-7.72292 3.05542,-8.45896z" fill="#b4d0e6"/><path d="M70.615,152.28792c1.04292,-0.02625 2.22625,0.42021 3.01063,1.10313c0.965,0.84 1.53979,1.92937 1.62583,3.21396c0.14104,2.10521 -1.09875,3.49958 -2.37375,5.00708c-2.62521,3.10417 -17.24333,20.91271 -19.97958,20.90542c-2.7,-0.00708 -6.23646,-4.80125 -7.97062,-6.66542c-2.53854,-2.74708 -7.90479,-7.47417 -2.55333,-11.03938c3.74,-2.49146 7.76833,3.74833 10.19,6.17646c3.11062,-3.61146 6.28813,-7.27625 9.53146,-10.76646c2.22229,-2.39125 5.32958,-7.08938 8.51937,-7.93479z" fill="#2683cc"/><path d="M199.76688,124.62979c2.22938,-0.02167 11.64771,-0.43229 13.08521,0.63042c2.12917,1.57229 1.38958,13.41833 0.7125,16.22583c-0.17708,0.7325 -1.60833,1.07833 -2.26458,1.23583c-2.23958,0.36208 -10.92208,0.57125 -12.85354,-0.37792c-1.45979,-1.43333 -1.60792,-6.53813 -1.40458,-8.58646c0.33667,-3.39125 -1.30708,-8.11021 2.725,-9.12771z" fill="#2683cc"/><path d="M177.89625,124.65021c2.71896,-0.14479 11.38792,-0.61187 13.42167,0.47917c0.32167,0.1725 0.50021,0.70688 0.59667,1.04396c0.55729,1.94771 0.86771,13.84562 -0.05563,15.31854c-0.60604,0.96667 -1.50542,1.14021 -2.53563,1.37417c-13.3,0.5325 -14.59687,1.91729 -13.98958,-12.13833c0.10667,-2.46917 -0.20771,-5.09229 2.5625,-6.0775z" fill="#2683cc"/><path d="M200.55979,102.8c1.10875,-0.02125 2.82208,-0.04375 3.79854,-0.06771c8.38333,-0.26417 10.07917,-0.41813 9.61667,8.63063c-0.18958,3.69104 1.26667,8.14229 -3.42292,8.82813c-2.97417,-0.00938 -9.51,0.59208 -12.19729,-0.58229c-0.47083,-0.20562 -1.22875,-2.165 -1.22875,-3.09c-0.00063,-3.41958 -0.70479,-9.93896 0.84167,-12.87646c0.32937,-0.62542 1.93625,-0.77396 2.59208,-0.84229z" fill="#2683cc"/><path d="M178.51125,102.77792c3.58542,-0.115 9.11437,-0.23146 12.53042,0.31146c1.84229,2.64187 1.30562,6.40062 1.33125,9.53938c0.02208,2.715 0.62979,6.66729 -2.7375,7.175c-3.81979,0.06792 -8.20937,0.17188 -11.99604,-0.06229c-3.88479,-2.52063 -1.76437,-7.75625 -2.29375,-11.90833c-0.30167,-2.36792 0.55125,-4.52333 3.16563,-5.05521z" fill="#2683cc"/><path d="M219.39375,114.79458c10.15833,0.15646 20.425,-0.11771 30.61458,0.055c-0.03333,1.92604 -0.19167,3.78729 -0.14792,5.73104c-1.3125,0.35583 -8.46667,0.23937 -10.175,0.23896l-20.36042,-0.03125c0.16875,-1.46854 0.09167,-4.44167 0.06875,-5.99375z" fill="#014280"/><path d="M222.08958,45.87146c0.99583,0.01875 1.65,-0.00729 2.61875,0.24417c1.88125,1.55313 1.73125,5.26292 1.70833,7.50375c-0.02708,2.54146 0.31042,6.14958 -2.45,7.24667c-0.51458,-0.01792 -1.99375,-0.04104 -2.41458,-0.22458c-2.38958,-1.04229 -1.97917,-5.36542 -2.04375,-7.56896c-0.05,-1.67104 -0.10208,-3.97875 0.45,-5.58062c0.28125,-0.81604 1.425,-1.35646 2.13125,-1.62042z" fill="#014280"/><path d="M256.925,45.8825c0.42292,-0.00979 1.74375,-0.05042 2.06458,0.1025c2.03542,0.98312 1.81042,4.70021 1.8125,6.62646c0.00208,2.13729 0.10833,4.73521 -0.63958,6.75708c-0.31875,0.86083 -0.95417,1.17958 -1.74375,1.50146c-2.24375,-0.13 -3.82083,-0.32125 -4.26042,-2.91729c-0.3125,-2.23958 -0.32083,-4.65146 -0.22917,-6.91813c0.09583,-2.3575 0.35625,-4.61604 2.99583,-5.15208z" fill="#014280"/><path d="M218.48542,89.35292c2.35625,0.26687 4.73542,0.28646 7.09583,0.05875c-0.02292,1.67958 0.16042,5.67896 -0.05833,7.10854c-2.11875,-0.34229 -5.2125,-0.24229 -7.43542,-0.21958c0,-1.31292 -0.17917,-6.01312 0.39792,-6.94771z" fill="#b4d0e6"/><path d="M218.34375,78.06625c2.21042,0.13771 5.06042,0.29812 7.23333,0.17146c-0.05417,1.83208 0.2125,5.13958 -0.13542,6.77542c-2.425,-0.02563 -4.84792,0.00083 -7.27292,0.07937c-0.02292,-1.62083 -0.16667,-5.63146 0.175,-7.02625z" fill="#b4d0e6"/><path d="M224.72917,101.16604c0.22708,-0.05708 0.28125,0.00667 0.55625,0.08062c0.55417,0.91417 0.28542,5.49063 0.24792,6.72542c-2.1375,-0.06646 -4.275,-0.04625 -6.4125,0.06021c-0.42708,-0.12583 -0.32083,-0.10208 -0.70833,-0.35375c-0.5625,-1.30187 -0.2875,-4.98271 -0.22708,-6.50375c2.25,0.06646 4.29375,0.12375 6.54375,-0.00875z" fill="#b4d0e6"/><path d="M230.51042,101.03938c2.13542,0.30229 4.83333,0.27729 6.97083,-0.01458c0.0875,2.16396 0.025,4.69833 0.02292,6.89021c-1.80625,0.1975 -4.4875,-0.07333 -6.88125,0.15292c-0.125,-2.34063 -0.1625,-4.68521 -0.1125,-7.02854z" fill="#0b59a5"/><path d="M230.6125,89.68167c2.03333,0.04812 4.53958,-0.08125 6.69792,-0.0625c0.04375,1.49125 0.20417,5.45062 -0.1625,6.77938c-1.55833,-0.23 -4.99792,-0.14562 -6.7125,-0.14604c0.00625,-1.42063 -0.14167,-5.50875 0.17708,-6.57083z" fill="#2683cc"/><path d="M242.84583,89.57958c2.35417,0.07104 4.71042,0.07104 7.06667,0c-0.19375,1.78812 -0.12292,4.76729 -0.12917,6.6525c-0.81042,0.12 -5.76458,0.08146 -6.83333,0.095c-0.02292,-2.24917 -0.05833,-4.49854 -0.10417,-6.7475z" fill="#2683cc"/><path d="M230.49583,78.34896c2.27292,0.01396 4.59583,0.05813 6.8625,-0.06937c-0.06875,2.20458 -0.00208,4.48417 -0.04792,6.71521c-2.29167,-0.02521 -4.58542,-0.01479 -6.87708,0.03146c-0.00208,-2.13417 -0.05625,-4.57125 0.0625,-6.67729z" fill="#2683cc"/><path d="M242.925,78.365l6.91042,-0.01542c-0.1375,1.84792 -0.025,4.73667 -0.00417,6.66292c-2.29167,-0.0375 -4.62083,-0.02708 -6.91667,-0.03896c0.07083,-2.20229 0.07292,-4.40604 0.01042,-6.60854z" fill="#2683cc"/><path d="M255.325,78.32146c2.02083,0.11521 4.68125,0.02792 6.75,0.01479c-0.24583,1.98583 -0.075,4.47708 -0.16667,6.57292c-1.57292,0.15146 -5.04583,0.0675 -6.76042,0.07771c0.06667,-1.56312 -0.16458,-5.43125 0.17708,-6.66542z" fill="#0b59a5"/></g></svg></svg>